<svg width="20" height="21" viewBox="0 0 20 21" fill="none" xmlns="http://www.w3.org/2000/svg">
<path d="M16.548 0.5H7.452C6.5368 0.501059 5.65938 0.86509 5.01224 1.51224C4.36509 2.15938 4.00106 3.0368 4 3.952V4.5H3.452C2.5368 4.50106 1.65938 4.86509 1.01224 5.51224C0.36509 6.15938 0.00105865 7.0368 0 7.952V17.048C0.00105865 17.9632 0.36509 18.8406 1.01224 19.4878C1.65938 20.1349 2.5368 20.4989 3.452 20.5H12.548C14.296 20.5 15.73 19.188 15.954 17.5H16.548C17.4632 17.4989 18.3406 17.1349 18.9878 16.4878C19.6349 15.8406 19.9989 14.9632 20 14.048V3.952C19.9989 3.0368 19.6349 2.15938 18.9878 1.51224C18.3406 0.86509 17.4632 0.501059 16.548 0.5ZM18 14.048C18 14.848 17.349 15.5 16.548 15.5H16V7.952C15.9989 7.0368 15.6349 6.15938 14.9878 5.51224C14.3406 4.86509 13.4632 4.50106 12.548 4.5H6V3.952C6 3.152 6.651 2.5 7.452 2.5H16.548C17.348 2.5 18 3.151 18 3.952V14.048Z" fill="#0056B0"/>
</svg>
